<svg xmlns="http://www.w3.org/2000/svg" width="38" height="36.1" viewBox="0 0 38 36.1">
  <g id="Page-1" transform="translate(11 11)">
    <g id="_029---Book-Shelf" data-name="029---Book-Shelf" transform="translate(-11 -11)">
      <path id="Shape" d="M36.1,27.233h-.633V5.067a1.9,1.9,0,0,0-1.9-1.9h-1.9a1.9,1.9,0,0,0-1.9,1.9V7.083a1.878,1.878,0,0,0-.633-.117h-1.9a1.878,1.878,0,0,0-.633.117V1.9A1.9,1.9,0,0,0,24.7,0H18.367a1.9,1.9,0,0,0-1.9,1.9V5.183a1.878,1.878,0,0,0-.633-.117H13.3a1.882,1.882,0,0,0-.73.147,1.9,1.9,0,0,0-1.312-1.249L9.421,3.473A1.9,1.9,0,0,0,7.093,4.816L3.9,16.723,3,20.11,1.52,25.616a1.885,1.885,0,0,0,.19,1.442,1.957,1.957,0,0,0,.127.181A1.9,1.9,0,0,0,0,29.133V30.4a1.9,1.9,0,0,0,1.9,1.9h.633v1.9a1.9,1.9,0,0,0,1.9,1.9H6.967a1.9,1.9,0,0,0,1.9-1.9V32.3H29.133v1.9a1.9,1.9,0,0,0,1.9,1.9h2.533a1.9,1.9,0,0,0,1.9-1.9V32.3H36.1A1.9,1.9,0,0,0,38,30.4V29.133A1.9,1.9,0,0,0,36.1,27.233Zm-9.5,0V22.8h3.167v4.433Zm-8.867,0V24.7h7.6v2.533Zm-5.067,0v-1.9h3.8v1.9Zm-5.689,0c.016-.047.038-.092.051-.142L11.4,10.777V27.233Zm-1.094-13,.8-2.977,3.058.82L7.444,20.647l-3.059-.82Zm11.85-9.169h7.6V23.433h-7.6ZM34.2,20.267H31.033V11.4H34.2Zm-4.433.633v.633H26.6v-7.6h3.167Zm-13.3,3.167h-3.8V9.5h3.8Zm14.567-1.9v-.633H34.2v5.7H31.033Zm0-17.1a.633.633,0,0,1,.633-.633h1.9a.633.633,0,0,1,.633.633v5.067H31.033Zm-3.8,3.167h1.9a.633.633,0,0,1,.633.633v3.8H26.6v-3.8A.633.633,0,0,1,27.233,8.233ZM18.367,1.267H24.7a.633.633,0,0,1,.633.633V3.8h-7.6V1.9A.633.633,0,0,1,18.367,1.267ZM13.3,6.333h2.533a.633.633,0,0,1,.633.633V8.233h-3.8V6.967A.633.633,0,0,1,13.3,6.333ZM8.319,5.145A.633.633,0,0,1,9.095,4.7l1.837.491a.633.633,0,0,1,.448.776L10.07,10.859l-3.059-.82Zm-5.573,20.8L4.057,21.05l3.06.82L5.805,26.763a.633.633,0,0,1-.776.448L3.192,26.72a.633.633,0,0,1-.448-.776ZM7.6,34.2a.633.633,0,0,1-.633.633H4.433A.633.633,0,0,1,3.8,34.2V32.3H7.6Zm26.6,0a.633.633,0,0,1-.633.633H31.033A.633.633,0,0,1,30.4,34.2V32.3h3.8Zm2.533-3.8a.633.633,0,0,1-.633.633H1.9a.633.633,0,0,1-.633-.633V29.133A.633.633,0,0,1,1.9,28.5H36.1a.633.633,0,0,1,.633.633Z" transform="translate(0)"/>
      <path id="Shape-2" data-name="Shape" d="M31,13h6a1,1,0,0,0,0-2H31a1,1,0,0,0,0,2Z" transform="translate(-12.692 -4.18)"/>
      <path id="Shape-3" data-name="Shape" d="M31,17h6a1,1,0,0,0,0-2H31a1,1,0,0,0,0,2Z" transform="translate(-12.692 -5.7)"/>
    </g>
  </g>
</svg>
