<svg xmlns="http://www.w3.org/2000/svg" width="38.075" height="35.055" viewBox="0 0 38.075 35.055">
  <path id="Bibliotheek" d="M37.8,11.659,19.188,1.318a.387.387,0,0,0-.376,0L.2,11.642a.387.387,0,0,0,.188.726H2.068v1.68a.387.387,0,0,0,.387.387H4.136v1.714a.387.387,0,0,0,.387.387h.991v12.74H4.523a.387.387,0,0,0-.387.387v1.681H3.145a.387.387,0,0,0-.387.387v1.68h-.3a.387.387,0,0,0-.387.387v2.068a.387.387,0,0,0,.387.387H35.545a.387.387,0,0,0,.387-.387V33.8a.387.387,0,0,0-.387-.387h-.3V31.732a.387.387,0,0,0-.387-.387h-.992V29.664a.387.387,0,0,0-.387-.387h-.992V16.536h.992a.387.387,0,0,0,.387-.387V14.436h1.681a.387.387,0,0,0,.387-.387V12.371l1.678.013h0a.387.387,0,0,0,.188-.726ZM11.719,14.436v1.714a.387.387,0,0,0,.387.387H13.1v12.74h-.992a.387.387,0,0,0-.387.387v1.681h-.6V29.664a.387.387,0,0,0-.387-.387H9.736V16.536h.992a.387.387,0,0,0,.387-.387V14.436ZM25.506,31.345h-5.43V30.051h5.43v1.294Zm-4.051-2.068V16.536h2.672v12.74Zm3.067-13.515H20.077V14.468h5.43v1.294Zm-4.833.774h.992v12.74h-.992a.387.387,0,0,0-.387.387v1.681h-.6V29.664a.387.387,0,0,0-.387-.387h-.992V16.536h.992a.387.387,0,0,0,.387-.387V14.436h.6v1.714A.387.387,0,0,0,19.689,16.536Zm-7.2-2.068h5.43v1.294h-5.43V14.468Zm1.379,2.068h2.672v12.74H13.872Zm-.387,13.515h4.438v1.294h-5.43V30.051ZM4.911,14.468h5.43v1.294H4.911Zm1.379,2.068H8.962v12.74H6.289ZM4.911,30.051h5.43v1.294H4.911Zm29.557,3.362H34.2a.387.387,0,1,0,0,.774h.957v1.293H2.843V34.187H31.875a.387.387,0,1,0,0-.774H3.532V32.12H34.468Zm-1.379-2.068H27.66V30.051h5.43v1.294Zm-1.379-2.068H29.038V16.536h2.672Zm1.379-13.515h-5.43V14.468h5.43v1.294Zm-5.817.774h.992v12.74h-.992a.387.387,0,0,0-.387.387v1.681h-.6V29.664a.387.387,0,0,0-.387-.387H24.9V16.536h.992a.387.387,0,0,0,.387-.387V14.436h.6v1.714A.387.387,0,0,0,27.272,16.536Zm8.275-4.943H34.433a.387.387,0,0,0,0,.774h.725v1.293H2.843V12.368H31.875a.387.387,0,1,0,0-.774H1.884L19,2.1l17.1,9.5ZM15.33,5.022a.387.387,0,0,0-.138.3V9.673a.387.387,0,0,0,.32.381l3.421.6a.387.387,0,0,0,.134,0l3.421-.6a.387.387,0,0,0,.32-.381V5.319a.387.387,0,0,0-.454-.381L19,5.525l-3.354-.588A.388.388,0,0,0,15.33,5.022Zm.636.757,2.646.464v2.58a.387.387,0,1,0,.774,0V6.244l2.646-.464V9.348l-2.646.464V9.8a.387.387,0,1,0-.774,0v.016l-2.646-.464V5.78ZM8.013,17.562V28.52a.387.387,0,0,1-.774,0V17.562a.387.387,0,1,1,.774,0Zm7.583,0V28.52a.387.387,0,0,1-.774,0V17.562a.387.387,0,0,1,.774,0Zm7.583,0V28.52a.387.387,0,1,1-.774,0V17.562a.387.387,0,1,1,.774,0ZM29.987,28.52V17.562a.387.387,0,1,1,.774,0V28.52a.387.387,0,1,1-.774,0Z" transform="translate(0.037 -1.233)" stroke="#000" stroke-width="0.065"/>
</svg>
