<svg xmlns="http://www.w3.org/2000/svg" width="36.073" height="45.896" viewBox="0 0 36.073 45.896">
  <g id="Group_2" data-name="Group 2" transform="translate(0.036 0.038)">
    <g id="Group_1" data-name="Group 1">
      <path id="Path_1" data-name="Path 1" d="M34.848,6H30.7V4.149c0-.6-.655-.873-1.255-.873H26.23A4.879,4.879,0,0,0,21.375,0a4.964,4.964,0,0,0-4.855,3.273H13.357c-.6,0-1.2.273-1.2.873V6H8.011A4.636,4.636,0,0,0,3.43,10.422V41.676a4.389,4.389,0,0,0,4.582,4.145H34.848a4.389,4.389,0,0,0,4.582-4.145V10.422A4.636,4.636,0,0,0,34.848,6ZM14.339,5.458h3a1.2,1.2,0,0,0,1.036-.982,3.164,3.164,0,0,1,3-2.455,3.109,3.109,0,0,1,2.945,2.455,1.2,1.2,0,0,0,1.091.982h3.109V9.822H14.339ZM37.248,41.676a2.212,2.212,0,0,1-2.4,1.964H8.011a2.213,2.213,0,0,1-2.4-1.964V10.422a2.454,2.454,0,0,1,2.4-2.236h4.145v2.782A1.146,1.146,0,0,0,13.357,12H29.448A1.2,1.2,0,0,0,30.7,10.967V8.185h4.145a2.455,2.455,0,0,1,2.4,2.236V41.676Z" transform="translate(-3.43 0)" stroke="#000" stroke-width="0.073"/>
      <path id="Path_2" data-name="Path 2" d="M13.067,17.03A.762.762,0,0,0,12,16.992L9.562,19.315,8.534,18.249a.762.762,0,0,0-1.067-.038.8.8,0,0,0,0,1.1l1.562,1.6a.686.686,0,0,0,.533.229.762.762,0,0,0,.533-.229L13.067,18.1a.724.724,0,0,0,.044-1.023Q13.09,17.051,13.067,17.03Z" transform="translate(-0.603 8.395)" stroke="#000" stroke-width="0.073"/>
      <path id="Path_3" data-name="Path 3" d="M24,18.668H15.238a.762.762,0,1,0,0,1.524H24a.762.762,0,0,0,0-1.524Z" transform="translate(8.235 8.466)" stroke="#000" stroke-width="0.073"/>
      <path id="Path_4" data-name="Path 4" d="M13.067,10.935A.762.762,0,0,0,12,10.9L9.562,13.221,8.534,12.154a.762.762,0,0,0-1.067-.038.8.8,0,0,0,0,1.1l1.562,1.6a.686.686,0,0,0,.533.229.762.762,0,0,0,.533-.229L13.067,12a.724.724,0,0,0,.044-1.023Q13.09,10.956,13.067,10.935Z" transform="translate(-0.603 5.348)" stroke="#000" stroke-width="0.073"/>
      <path id="Path_5" data-name="Path 5" d="M24,12.573H15.238a.762.762,0,1,0,0,1.524H24a.762.762,0,0,0,0-1.524Z" transform="translate(8.235 5.702)" stroke="#000" stroke-width="0.073"/>
      <path id="Path_6" data-name="Path 6" d="M13.067,23.125A.762.762,0,0,0,12,23.086L9.562,25.41,8.534,24.343a.762.762,0,0,0-1.067-.038.8.8,0,0,0,0,1.1l1.562,1.6a.686.686,0,0,0,.533.229.762.762,0,0,0,.533-.229l2.971-2.819a.724.724,0,0,0,.044-1.023Q13.09,23.146,13.067,23.125Z" transform="translate(-0.603 10.233)" stroke="#000" stroke-width="0.073"/>
      <path id="Path_7" data-name="Path 7" d="M24,24.763H15.238a.762.762,0,1,0,0,1.524H24a.762.762,0,0,0,0-1.524Z" transform="translate(8.235 11.23)" stroke="#000" stroke-width="0.073"/>
    </g>
  </g>
</svg>
