<svg id="right" xmlns="http://www.w3.org/2000/svg" width="66" height="67" viewBox="0 0 66 67">
  <g id="schaduw" transform="translate(1 2)" fill="#2b7679">
    <path d="M 32.5 63 C 28.38165092468262 63 24.38754081726074 62.1938591003418 20.62863922119141 60.60398101806641 C 16.9969596862793 59.06790924072266 13.73495960235596 56.86846923828125 10.93323993682861 54.0667610168457 C 8.131529808044434 51.26504135131836 5.932089805603027 48.0030403137207 4.39601993560791 44.37136077880859 C 2.806139945983887 40.61246109008789 2 36.61835098266602 2 32.5 C 2 28.38165092468262 2.806139945983887 24.38754081726074 4.39601993560791 20.62863922119141 C 5.932089805603027 16.9969596862793 8.131529808044434 13.73495960235596 10.93323993682861 10.93323993682861 C 13.73495960235596 8.131529808044434 16.9969596862793 5.932089805603027 20.62863922119141 4.39601993560791 C 24.38754081726074 2.806139945983887 28.38165092468262 2 32.5 2 C 36.61835098266602 2 40.61246109008789 2.806139945983887 44.37136077880859 4.39601993560791 C 48.0030403137207 5.932089805603027 51.26504135131836 8.131529808044434 54.0667610168457 10.93323993682861 C 56.86846923828125 13.73495960235596 59.06790924072266 16.9969596862793 60.60398101806641 20.62863922119141 C 62.1938591003418 24.38754081726074 63 28.38165092468262 63 32.5 C 63 36.61835098266602 62.1938591003418 40.61246109008789 60.60398101806641 44.37136077880859 C 59.06790924072266 48.0030403137207 56.86846923828125 51.26504135131836 54.0667610168457 54.0667610168457 C 51.26504135131836 56.86846923828125 48.0030403137207 59.06790924072266 44.37136077880859 60.60398101806641 C 40.61246109008789 62.1938591003418 36.61835098266602 63 32.5 63 Z" stroke="none"/>
    <path d="M 32.5 4 C 28.65076446533203 4 24.91878890991211 4.752975463867188 21.40774154663086 6.238021850585938 C 18.01445770263672 7.673271179199219 14.96614074707031 9.728775024414062 12.34745788574219 12.34745788574219 C 9.728775024414062 14.96614074707031 7.673271179199219 18.01445770263672 6.238021850585938 21.40774154663086 C 4.752975463867188 24.91878890991211 4 28.65076446533203 4 32.5 C 4 36.34923553466797 4.752975463867188 40.08121109008789 6.238021850585938 43.59225845336914 C 7.673271179199219 46.98554229736328 9.728775024414062 50.03385925292969 12.34745788574219 52.65254211425781 C 14.96614074707031 55.27122497558594 18.01445770263672 57.32672882080078 21.40774154663086 58.761962890625 C 24.91878890991211 60.24702453613281 28.65076446533203 61 32.5 61 C 36.34923553466797 61 40.08121109008789 60.24702453613281 43.59225845336914 58.761962890625 C 46.98554229736328 57.32672882080078 50.03385925292969 55.27122497558594 52.65254211425781 52.65254211425781 C 55.27122497558594 50.03385925292969 57.32672882080078 46.98554229736328 58.761962890625 43.59225845336914 C 60.24702453613281 40.08121109008789 61 36.34923553466797 61 32.5 C 61 28.65076446533203 60.24702453613281 24.91878890991211 58.761962890625 21.40774154663086 C 57.32672882080078 18.01445770263672 55.27122497558594 14.96614074707031 52.65254211425781 12.34745788574219 C 50.03385925292969 9.728775024414062 46.98554229736328 7.673271179199219 43.59225845336914 6.238021850585938 C 40.08121109008789 4.752975463867188 36.34923553466797 4 32.5 4 M 32.5 0 C 50.44924926757812 0 65 14.55073928833008 65 32.5 C 65 50.44924926757812 50.44924926757812 65 32.5 65 C 14.55073928833008 65 0 50.44924926757812 0 32.5 C 0 14.55073928833008 14.55073928833008 0 32.5 0 Z" stroke="none" fill="#2b7679"/>
  </g>
  <g id="basis" fill="#90c2c4" stroke="#369093" stroke-width="4">
    <circle cx="32.5" cy="32.5" r="32.5" stroke="none"/>
    <circle cx="32.5" cy="32.5" r="30.5" fill="none"/>
  </g>
  <path id="Icon_ionic-ios-arrow-back" data-name="Icon ionic-ios-arrow-back" d="M16.264,27.044,12.109,10.83a2.577,2.577,0,0,1,0-3.841,3.1,3.1,0,0,1,4.142,0L33.8,23.294a2.58,2.58,0,0,1,.085,3.751L16.264,43.463a3.1,3.1,0,0,1-4.142,0,2.577,2.577,0,0,1,0-3.841Z" transform="translate(11.051 8.275)"/>
</svg>
