<svg xmlns="http://www.w3.org/2000/svg" width="55" height="55" viewBox="0 0 55 55">
  <g id="Group_16" data-name="Group 16" transform="translate(-247 -199)">
    <g id="right" transform="translate(247 199)">
      <g id="schaduw" transform="translate(1 2)" fill="#2b7679">
        <path d="M 27 51 C 23.61953926086426 51 20.34159088134766 50.35076904296875 17.2571907043457 49.07033920288086 C 14.27941036224365 47.83417129516602 11.60527038574219 46.06465911865234 9.309049606323242 43.81095886230469 C 7.015429973602295 41.55981063842773 5.215240001678467 38.93973159790039 3.958499908447266 36.02347946166992 C 2.658940076828003 33.00785827636719 2 29.80368995666504 2 26.5 C 2 23.19631004333496 2.658940076828003 19.99214935302734 3.958499908447266 16.97653007507324 C 5.215240001678467 14.06027984619141 7.015429973602295 11.44019031524658 9.309049606323242 9.189040184020996 C 11.60527038574219 6.93533992767334 14.27941036224365 5.165830135345459 17.25720024108887 3.929660081863403 C 20.34159088134766 2.649230003356934 23.61953926086426 2 27 2 C 30.38046073913574 2 33.65840911865234 2.649230003356934 36.74280166625977 3.929660081863403 C 39.72058868408203 5.165830135345459 42.39472961425781 6.93533992767334 44.69094848632812 9.189040184020996 C 46.98456954956055 11.44019031524658 48.78475952148438 14.06027984619141 50.04150009155273 16.97653007507324 C 51.34106063842773 19.99214935302734 52 23.19631004333496 52 26.5 C 52 29.80368995666504 51.34106063842773 33.00785827636719 50.04150009155273 36.02347946166992 C 48.78475952148438 38.93973159790039 46.98456954956055 41.55981063842773 44.69094848632812 43.81095886230469 C 42.39472961425781 46.06465911865234 39.72058868408203 47.83417129516602 36.7428092956543 49.07033920288086 C 33.65840911865234 50.35076904296875 30.38046073913574 51 27 51 Z" stroke="none"/>
        <path d="M 27 4 C 23.88405609130859 4 20.86410140991211 4.597812652587891 18.02400970458984 5.776821136474609 C 15.28358840942383 6.914455413818359 12.82278823852539 8.542732238769531 10.70998764038086 10.61640930175781 C 8.602378845214844 12.68498992919922 6.948799133300781 15.09114456176758 5.795211791992188 17.76804351806641 C 4.604000091552734 20.53223419189453 4 23.47008895874023 4 26.5 C 4 29.52991104125977 4.604000091552734 32.46776580810547 5.795211791992188 35.23195648193359 C 6.948799133300781 37.90885543823242 8.602378845214844 40.31501007080078 10.70998764038086 42.38359069824219 C 12.82278823852539 44.45726776123047 15.28358840942383 46.08554458618164 18.02400970458984 47.22317886352539 C 20.86410140991211 48.40218734741211 23.88405609130859 49 27 49 C 30.11594390869141 49 33.13590240478516 48.40218734741211 35.97599029541016 47.22317886352539 C 38.71641159057617 46.08554458618164 41.17721176147461 44.45726776123047 43.29001235961914 42.38359069824219 C 45.39762115478516 40.31501007080078 47.05120086669922 37.90885543823242 48.20478820800781 35.23195648193359 C 49.39599990844727 32.46776580810547 50 29.52991104125977 50 26.5 C 50 23.47008895874023 49.39599990844727 20.53223419189453 48.20478820800781 17.76804351806641 C 47.05120086669922 15.09114456176758 45.39762115478516 12.68498992919922 43.29001235961914 10.61640930175781 C 41.17721176147461 8.542732238769531 38.71641159057617 6.914455413818359 35.97599029541016 5.776821136474609 C 33.13590240478516 4.597812652587891 30.11594390869141 4 27 4 M 27 0 C 41.91168975830078 0 54 11.86445617675781 54 26.5 C 54 41.13554382324219 41.91168975830078 53 27 53 C 12.08831024169922 53 0 41.13554382324219 0 26.5 C 0 11.86445617675781 12.08831024169922 0 27 0 Z" stroke="none" fill="#2b7679"/>
      </g>
      <g id="basis" fill="#90c2c4" stroke="#369093" stroke-width="4">
        <ellipse cx="27" cy="26.5" rx="27" ry="26.5" stroke="none"/>
        <ellipse cx="27" cy="26.5" rx="25" ry="24.5" fill="none"/>
      </g>
    </g>
    <path id="Icon_ionic-ios-heart" data-name="Icon ionic-ios-heart" d="M25.3,3.938h-.072a8.135,8.135,0,0,0-6.851,3.9,8.135,8.135,0,0,0-6.851-3.9h-.072a8.325,8.325,0,0,0-8.077,8.475,18.727,18.727,0,0,0,3.447,9.953c4.341,6.172,11.553,11.572,11.553,11.572s7.212-5.4,11.553-11.572a18.727,18.727,0,0,0,3.447-9.953A8.325,8.325,0,0,0,25.3,3.938Z" transform="translate(255.625 208.063)" fill="#ce3030" stroke="#000" stroke-width="2"/>
  </g>
</svg>
